<svg width="16" height="15" viewBox="0 0 16 15" fill="none" xmlns="http://www.w3.org/2000/svg">
<path d="M11.7223 0.823242C10.8605 0.823242 10.0703 1.09822 9.37387 1.64057C8.70616 2.16051 8.26161 2.82276 7.99989 3.30432C7.73817 2.82273 7.29362 2.16051 6.62591 1.64057C5.92945 1.09822 5.1393 0.823242 4.27747 0.823242C1.87241 0.823242 0.0587158 2.80399 0.0587158 5.43066C0.0587158 8.26836 2.32142 10.2099 5.74686 13.1491C6.32855 13.6482 6.98789 14.214 7.67319 14.8174C7.76352 14.897 7.87953 14.9409 7.99989 14.9409C8.12025 14.9409 8.23627 14.897 8.3266 14.8174C9.01196 14.2139 9.67126 13.6482 10.2533 13.1488C13.6784 10.2099 15.9411 8.26836 15.9411 5.43066C15.9411 2.80399 14.1274 0.823242 11.7223 0.823242Z" fill="#DE33FE"/>
</svg>
